<?xml version="1.0" encoding="UTF-8" standalone="no"?>
<!-- Created with Inkscape (http://www.inkscape.org/) -->

<svg
   xmlns:dc="http://purl.org/dc/elements/1.1/"
   xmlns:cc="http://creativecommons.org/ns#"
   xmlns:rdf="http://www.w3.org/1999/02/22-rdf-syntax-ns#"
   xmlns:svg="http://www.w3.org/2000/svg"
   xmlns="http://www.w3.org/2000/svg"
   xmlns:sodipodi="http://sodipodi.sourceforge.net/DTD/sodipodi-0.dtd"
   xmlns:inkscape="http://www.inkscape.org/namespaces/inkscape"
   width="1024"
   height="768"
   id="svg2"
   version="1.1"
   inkscape:version="0.48.4 r9939"
   sodipodi:docname="logo_tmrg.svg"
   inkscape:export-filename="/home/skulis/work/tmrg/ppt/logo_tmrg.png"
   inkscape:export-xdpi="90"
   inkscape:export-ydpi="90">
  <defs
     id="defs4" />
  <sodipodi:namedview
     id="base"
     pagecolor="#ffffff"
     bordercolor="#666666"
     borderopacity="1.0"
     inkscape:pageopacity="0.0"
     inkscape:pageshadow="2"
     inkscape:zoom="0.7"
     inkscape:cx="520.19073"
     inkscape:cy="359.92252"
     inkscape:document-units="px"
     inkscape:current-layer="layer1"
     showgrid="true"
     inkscape:window-width="1920"
     inkscape:window-height="1004"
     inkscape:window-x="0"
     inkscape:window-y="24"
     inkscape:window-maximized="1"
     inkscape:snap-bbox="true">
    <inkscape:grid
       type="xygrid"
       id="grid2996"
       empspacing="5"
       visible="true"
       enabled="true"
       snapvisiblegridlinesonly="true" />
  </sodipodi:namedview>
  <metadata
     id="metadata7">
    <rdf:RDF>
      <cc:Work
         rdf:about="">
        <dc:format>image/svg+xml</dc:format>
        <dc:type
           rdf:resource="http://purl.org/dc/dcmitype/StillImage" />
        <dc:title></dc:title>
      </cc:Work>
    </rdf:RDF>
  </metadata>
  <g
     inkscape:label="Layer 1"
     inkscape:groupmode="layer"
     id="layer1"
     transform="translate(0,-284.36218)">
    <rect
       style="fill:#555753;fill-opacity:1;fill-rule:nonzero;stroke:#555753;stroke-width:2;stroke-linecap:square;stroke-miterlimit:4;stroke-opacity:1;stroke-dasharray:none;stroke-dashoffset:0"
       id="rect3445"
       width="618"
       height="218"
       x="203.32141"
       y="518.36218"
       ry="19.999996"
       rx="20" />
    <path
       inkscape:connector-curvature="0"
       style="fill:#e6e6e6;stroke:#e6e6e6;stroke-width:0.99999982;stroke-miterlimit:4;stroke-dasharray:none"
       d="m 415.84924,537.93527 0,178.90585 385.88857,0 0,-178.90585 -385.88857,0 z m 340.16479,41.93106 c 5.45895,7e-5 10.71906,0.48715 15.70184,1.52476 5.01929,1.03778 9.76126,2.53607 14.19447,4.5743 l 0,17.28068 c -4.57977,-2.63122 -9.14901,-4.67481 -13.692,-5.97201 -4.5065,-1.29702 -9.02341,-1.90587 -13.5664,-1.90595 -8.42672,8e-5 -15.01625,2.33488 -19.59591,7.11558 -4.54311,4.74376 -6.78323,11.59992 -6.78319,20.45727 -4e-5,8.7833 2.26102,15.54948 6.65758,20.33021 4.39648,4.78081 10.61965,7.24264 18.7166,7.24264 2.1982,0 4.16093,-0.24885 6.02951,-0.50826 1.90508,-0.29641 3.64802,-0.67765 5.15021,-1.27064 l 0,-16.1371 -12.93833,0 0,-14.35822 33.03669,0 0,39.89804 c -5.2759,2.59422 -10.77679,4.54784 -16.45554,5.84494 -5.67891,1.2971 -11.54092,2.03303 -17.58607,2.03303 -13.66588,0 -24.54725,-3.85429 -32.53422,-11.56281 -7.98701,-7.74557 -11.9334,-18.2813 -11.9334,-31.51183 0,-13.3787 4.05107,-23.96736 12.18463,-31.63889 8.13353,-7.6714 19.27136,-11.43567 33.41353,-11.43574 z m -326.09593,1.52476 75.62009,0 0,16.13711 -27.25841,0 0,66.83557 -21.10327,0 0,-66.83557 -27.25841,0 0,-16.13711 z m 86.54857,0 26.88157,0 18.71659,44.34527 18.71661,-44.34527 26.88155,0 0,82.97268 -19.97274,0 0,-60.73651 -18.84222,44.72646 -13.44078,0 -18.96783,-44.72646 0,60.73651 -19.97275,0 0,-82.97268 z m 112.04838,0 32.28298,0 c 10.80806,8e-5 18.72179,1.79487 23.7412,5.46374 5.0559,3.66904 7.66242,9.47693 7.6625,17.40775 -8e-5,5.48496 -1.38184,9.9481 -4.01967,13.46876 -2.60133,3.52079 -6.53205,6.21028 -11.80779,7.87795 2.89432,0.66713 5.51651,2.07544 7.78811,4.44724 2.3081,2.33484 4.56394,5.89263 6.90881,10.67336 l 11.55657,23.63388 -22.48505,0 -10.04918,-20.58435 c -2.01511,-4.15074 -4.06682,-6.99379 -6.15513,-8.51328 -2.05175,-1.51943 -4.84667,-2.28709 -8.29056,-2.28714 l -5.9039,0 0,31.38477 -21.22889,0 0,-82.97268 z m 21.22889,15.50179 0,21.21966 8.79303,0 c 4.4331,4e-5 7.64152,-0.74645 9.54672,-2.41422 1.94175,-1.66765 2.88911,-4.44186 2.88915,-8.25914 -4e-5,-3.78008 -0.9474,-6.50137 -2.88915,-8.13209 -1.9052,-1.63061 -5.11362,-2.41413 -9.54672,-2.41421 l -8.79303,0 z"
       id="rect2987" />
    <rect
       style="fill:none;stroke:#e6e6e6;stroke-width:2;stroke-miterlimit:4;stroke-dasharray:none"
       id="rect2987-2"
       width="192.94427"
       height="178.90585"
       x="222.90501"
       y="537.88324" />
    <g
       id="g3875"
       transform="matrix(4.0196725,0,0,4.066042,44.003088,-3315.0499)"
       style="fill:#e6e6e6;stroke:#e6e6e6;stroke-width:0.24735388">
      <path
         transform="matrix(0.49965446,0,0,0.49768131,74.010021,529.81049)"
         inkscape:transform-center-y="8.575433"
         inkscape:transform-center-x="0.077669424"
         d="M 29,918.36218 -9.0262793,918.31667 10.026279,885.4077 z"
         inkscape:randomized="0"
         inkscape:rounded="0"
         inkscape:flatsided="true"
         sodipodi:arg2="1.5719934"
         sodipodi:arg1="0.52479577"
         sodipodi:r2="33.341866"
         sodipodi:r1="21.954498"
         sodipodi:cy="907.36218"
         sodipodi:cx="10"
         sodipodi:sides="3"
         id="path3033-9"
         style="fill:#e6e6e6;stroke:#e6e6e6;stroke-width:0.49603018;stroke-linecap:square;stroke-linejoin:miter;stroke-miterlimit:4;stroke-dasharray:none"
         sodipodi:type="star" />
      <path
         transform="matrix(0.49965446,0,0,0.49768131,54.003455,529.78498)"
         inkscape:transform-center-y="8.575433"
         inkscape:transform-center-x="0.077669424"
         d="M 29,918.36218 -9.0262793,918.31667 10.026279,885.4077 z"
         inkscape:randomized="0"
         inkscape:rounded="0"
         inkscape:flatsided="true"
         sodipodi:arg2="1.5719934"
         sodipodi:arg1="0.52479577"
         sodipodi:r2="33.341866"
         sodipodi:r1="21.954498"
         sodipodi:cy="907.36218"
         sodipodi:cx="10"
         sodipodi:sides="3"
         id="path3033-9-9"
         style="fill:#e6e6e6;stroke:#e6e6e6;stroke-width:0.49603018;stroke-linecap:square;stroke-linejoin:miter;stroke-miterlimit:4;stroke-dasharray:none"
         sodipodi:type="star" />
      <path
         transform="matrix(0.49965446,0,0,0.49768131,64.010021,512.5109)"
         inkscape:transform-center-y="8.575433"
         inkscape:transform-center-x="0.077669424"
         d="M 29,918.36218 -9.0262793,918.31667 10.026279,885.4077 z"
         inkscape:randomized="0"
         inkscape:rounded="0"
         inkscape:flatsided="true"
         sodipodi:arg2="1.5719934"
         sodipodi:arg1="0.52479577"
         sodipodi:r2="33.341866"
         sodipodi:r1="21.954498"
         sodipodi:cy="907.36218"
         sodipodi:cx="10"
         sodipodi:sides="3"
         id="path3033-9-5"
         style="fill:#e6e6e6;stroke:#e6e6e6;stroke-width:0.49603018;stroke-linecap:square;stroke-linejoin:miter;stroke-miterlimit:4;stroke-dasharray:none"
         sodipodi:type="star" />
    </g>
  </g>
</svg>
